<svg width="859" height="689" viewBox="0 0 859 689" fill="none" xmlns="http://www.w3.org/2000/svg">
<g clip-path="url(#clip0_177_66)">
<path d="M54.72 688.625H797.707C810.649 688.613 823.188 684.119 833.192 675.908C843.196 667.697 850.048 656.275 852.583 643.583C864.661 583.607 870.539 496.95 736.918 405.54C585.229 301.769 576.542 60.9461 382.918 130.089C207.278 192.81 271.2 317.428 123.93 430.437C51.148 486.288 0.800014 534.518 0.00801427 620.943C-0.464986 672.754 19.1 688.625 54.72 688.625Z" fill="#F3F5FD"/>
<path d="M606.079 251.804L364.713 394.197L123.347 251.804L364.713 45.651L606.079 251.804Z" fill="#9EBCEA"/>
<path d="M552.975 0H169.364V497.637H552.975V0Z" fill="#C1D8ED"/>
<path d="M517.617 115.754H204.722V127.602H517.617V115.754Z" fill="white"/>
<path d="M517.617 291.476H204.722V303.324H517.617V291.476Z" fill="white"/>
<path d="M517.617 150.899H204.722V162.747H517.617V150.899Z" fill="white"/>
<path d="M517.617 186.043H204.722V197.891H517.617V186.043Z" fill="white"/>
<path d="M517.617 221.188H204.722V233.036H517.617V221.188Z" fill="white"/>
<path d="M517.617 256.332H204.722V268.18H517.617V256.332Z" fill="white"/>
<path d="M476.22 432.054H246.12V443.902H476.22V432.054Z" fill="white"/>
<path d="M517.617 326.621H204.722V338.469H517.617V326.621Z" fill="white"/>
<path d="M517.617 361.765H204.722V373.613H517.617V361.765Z" fill="white"/>
<path d="M517.617 396.91H204.722V408.758H517.617V396.91Z" fill="white"/>
<path d="M517.617 53.735H204.722V86.043H517.617V53.735Z" fill="white"/>
<path d="M606.079 251.804V554.719H123.347V251.804L364.713 394.197L606.079 251.804Z" fill="#DEE8F5"/>
<path d="M167.355 679.142L146.355 679.074C146.355 679.074 146.425 657.389 146.425 655.468H167.425C167.425 657.4 167.355 679.142 167.355 679.142Z" fill="#E98862"/>
<path d="M251.03 676.632L230.178 674.152C231.116 666.259 232.178 656.778 232.25 655.223C232.25 655.323 232.25 655.405 232.25 655.468H253.25C253.245 656.1 253.245 658.014 251.03 676.632Z" fill="#E98862"/>
<path d="M258.778 669.37C257.04 625.361 256.935 579.139 256.391 535.014C249.169 487.42 245.372 435.22 236.457 387.964L236.19 388.043L235.408 382.713L159.332 378.013L156.372 427.718H156.656C152.825 494.298 145.423 601.333 140.943 668.806L177.812 671.921C184.396 605.562 195.133 499.846 201.084 434.442C207.614 467.769 213.771 505.298 219.569 539.02C220.838 582.099 221.899 626.99 221.784 669.999L258.778 669.37Z" fill="#262626"/>
<path d="M192.884 687.264C193.449 687.261 194.007 687.142 194.523 686.914C195.04 686.686 195.504 686.354 195.887 685.939C196.269 685.523 196.562 685.033 196.747 684.5C196.931 683.966 197.004 683.4 196.96 682.837C196.899 682.056 196.617 681.31 196.146 680.684C195.674 680.059 195.034 679.581 194.301 679.308L169.859 671.121C169.385 670.964 168.884 670.912 168.388 670.967C167.892 671.022 167.414 671.184 166.987 671.441C163.626 673.772 159.607 674.964 155.519 674.841C152.335 674.615 149.278 673.498 146.698 671.618C146.471 671.432 146.196 671.315 145.905 671.279C145.614 671.244 145.319 671.292 145.054 671.417C144.789 671.543 144.566 671.742 144.409 671.99C144.253 672.237 144.17 672.525 144.171 672.818V684.77C144.171 685.123 144.241 685.472 144.376 685.797C144.511 686.123 144.709 686.419 144.959 686.667C145.209 686.916 145.506 687.113 145.832 687.247C146.158 687.381 146.507 687.449 146.86 687.448L192.884 687.264Z" fill="#C1D8ED"/>
<path d="M276.617 687.264C277.182 687.261 277.74 687.142 278.257 686.914C278.773 686.686 279.238 686.354 279.62 685.939C280.003 685.523 280.296 685.034 280.48 684.5C280.665 683.966 280.738 683.4 280.694 682.837C280.633 682.056 280.35 681.31 279.879 680.685C279.408 680.059 278.768 679.582 278.035 679.308L253.592 671.121C253.118 670.964 252.617 670.912 252.121 670.967C251.625 671.022 251.147 671.184 250.72 671.441C247.36 673.772 243.34 674.964 239.252 674.841C236.068 674.615 233.012 673.498 230.432 671.618C230.205 671.432 229.93 671.315 229.639 671.279C229.348 671.244 229.053 671.292 228.788 671.417C228.523 671.543 228.3 671.742 228.143 671.99C227.987 672.237 227.904 672.525 227.905 672.818V684.77C227.905 685.122 227.975 685.471 228.11 685.797C228.245 686.123 228.443 686.418 228.693 686.667C228.943 686.916 229.239 687.113 229.565 687.247C229.891 687.381 230.24 687.449 230.593 687.448L276.617 687.264Z" fill="#C1D8ED"/>
<path d="M183.107 275.969C183.107 275.969 190.84 271.869 189.113 250.813L205.09 247.851C205.09 247.851 203.29 266.729 211.377 272.723L183.107 275.969Z" fill="#E98862"/>
<path d="M180.048 242.648C181.154 249.036 184.641 255.086 190.276 257.148C196.965 259.597 201.92 259.763 209.633 259.763C220.159 259.763 219.811 248.786 220.106 237.725C220.406 226.619 219.52 214.706 215.36 210.837C207.06 203.112 182.687 208.004 179.723 220.924C178.19 227.608 179 236.567 180.048 242.648Z" fill="#E98862"/>
<path d="M226.609 210.715C224.848 204.259 219.361 201.104 210.286 203.476C203.832 205.163 203.015 203.646 197.55 201.016C194.42 199.509 184.15 200.197 181.609 207.147C178.884 214.593 170.457 208.563 169.675 220.693C169.019 230.846 172.452 245.359 179.348 253.526C181.736 256.354 185.631 259.743 188.648 260.581C191.611 261.404 204.421 260.681 205.665 259.947C211.783 256.314 211.155 239.656 210.184 228.971C210.025 227.212 210.349 224.29 214.861 224.29C217.961 224.29 219.678 224.217 221.279 223.062C221.277 223.062 228.37 217.172 226.609 210.715Z" fill="#0F1011"/>
<path d="M216.243 239.824C216.321 240.634 216.237 241.452 215.996 242.229C215.755 243.007 215.361 243.729 214.839 244.353C214.317 244.977 213.675 245.492 212.952 245.866C212.229 246.24 211.439 246.467 210.628 246.533C209.817 246.599 209 246.504 208.226 246.252C207.452 246 206.736 245.597 206.119 245.065C205.502 244.534 204.997 243.886 204.633 243.157C204.269 242.429 204.054 241.636 203.999 240.824C203.919 240.017 204.002 239.203 204.244 238.429C204.485 237.655 204.88 236.938 205.404 236.32C205.928 235.702 206.572 235.196 207.296 234.831C208.02 234.467 208.81 234.252 209.619 234.2C214 234.061 215.966 236.443 216.243 239.824Z" fill="#E98862"/>
<path d="M136.942 414.051C136.942 417.031 138.515 426.994 135.984 427.705C134.467 428.132 132.675 420.705 132.675 420.705" fill="#E98862"/>
<path d="M124.994 412.486C124.994 412.486 116.73 432.6 126.156 444.155C126.396 444.449 126.72 444.664 127.084 444.772C127.448 444.88 127.837 444.875 128.198 444.758C128.56 444.641 128.878 444.418 129.11 444.117C129.343 443.817 129.479 443.453 129.502 443.074C129.96 435.283 131.531 419.28 136.668 421.149V408.586" fill="#E98862"/>
<path d="M311.336 305.322C311.336 305.322 322.878 296.154 323.693 292.861C324.508 289.568 316.382 283.091 316.382 283.091C316.382 283.091 327.19 272.196 325.035 270.617C322.491 268.753 309.949 284.599 309.949 284.599C309.949 284.599 311.722 278.899 309.514 278.524C308.607 278.371 307.888 279.262 306.467 283.296C304.849 287.896 301.616 294.812 301.616 294.812L311.336 305.322Z" fill="#E98862"/>
<path d="M299.185 293.133L265.047 331.541L238.347 283.747C235.819 276.195 230.063 271.137 218.324 270.634C214.309 270.462 194.718 270.434 180.374 270.434C170.737 270.434 162.826 273.391 158.258 277.959C155.957 280.227 154.235 283.015 153.237 286.088L153.099 286.037L130.146 348.452C129.889 349.152 129.704 349.876 129.594 350.614L120.33 413.028L141.898 416.228L150.998 354.928L160.268 329.721C161.233 333.595 161.76 337.566 161.84 341.558C161.84 362.558 152.34 371.976 153.04 382.758C154.14 399.703 236.469 395.699 240.663 386.074C244.982 376.148 236.216 370.032 236.6 337.565C236.642 334.031 236.915 330.335 237.291 326.572L253.491 355.572C254.339 357.091 255.538 358.385 256.989 359.345C258.439 360.306 260.098 360.905 261.827 361.094C263.556 361.282 265.306 361.054 266.929 360.428C268.552 359.803 270.002 358.797 271.157 357.497L316.041 304.997L299.185 293.133Z" fill="#367CFF"/>
<path d="M691.144 459.679L681.669 461.919L693.547 512.16L703.022 509.92L691.144 459.679Z" fill="#F0F6FF"/>
<path d="M701.568 455.784L693.433 499.882L698.693 500.852L706.828 456.754L701.568 455.784Z" fill="#C1D8ED"/>
<path d="M701.571 455.771L700.646 460.635L705.9 461.635L706.826 456.771L701.571 455.771Z" fill="#DEE8F5"/>
<path d="M685.284 466.983L682.364 468.134L699.409 511.401L702.329 510.25L685.284 466.983Z" fill="#0CBC8B"/>
<path d="M707.243 485.922H681.549V518.76H707.243V485.922Z" fill="#C1D8ED"/>
<path d="M642.793 583.885H632.265V687.451H642.793V583.885Z" fill="#C1D8ED"/>
<path d="M634.129 583.885H623.601V687.451H634.129V583.885Z" fill="#DEE8F5"/>
<path d="M773.922 583.885H763.394V687.451H773.922V583.885Z" fill="#C1D8ED"/>
<path d="M765.258 583.885H754.73V687.451H765.258V583.885Z" fill="#DEE8F5"/>
<path d="M671.668 583.885H661.14V687.451H671.668V583.885Z" fill="#C1D8ED"/>
<path d="M663.004 583.885H652.476V687.451H663.004V583.885Z" fill="#DEE8F5"/>
<path d="M802.797 583.885H792.269V687.451H802.797V583.885Z" fill="#C1D8ED"/>
<path d="M794.133 583.885H783.605V687.451H794.133V583.885Z" fill="#DEE8F5"/>
<path d="M802.796 517.592H661.205V586.368H802.796V517.592Z" fill="#C1D8ED"/>
<path d="M765.192 517.592H623.601V586.368H765.192V517.592Z" fill="#DEE8F5"/>
<g opacity="0.53">
<path d="M757.575 527.369H631.218V576.287H757.575V527.369Z" fill="#F3F5FD"/>
</g>
<path d="M694.396 557.44C697.496 557.44 700.008 554.927 700.008 551.828C700.008 548.729 697.496 546.216 694.396 546.216C691.297 546.216 688.784 548.729 688.784 551.828C688.784 554.927 691.297 557.44 694.396 557.44Z" fill="white"/>
<path d="M98.2 620.89C94.161 619.568 90.015 621.052 86.049 624.07C91.273 610.876 93.43 598.959 84.497 598.423C78.248 598.047 73.46 602.842 69.823 609.659C68.544 597.673 65.243 588.734 57.85 591.698C49.734 594.951 48.5 606.098 49.731 617.77C46.155 611.81 42.305 608.487 38.81 611.983C28.377 622.415 53.984 651.816 53.984 651.816H60.343L63.973 655.757C63.238 657.309 62.836 658.234 62.836 658.234L67.446 667.616C67.446 667.616 114.965 626.378 98.2 620.89Z" fill="#8DDBE0"/>
<path d="M86.798 688.625H50.806L44.781 646.608H92.823L86.798 688.625Z" fill="#C1D8ED"/>
</g>
<defs>
<clipPath id="clip0_177_66">
<rect width="858.404" height="688.625" fill="white"/>
</clipPath>
</defs>
</svg>
