<svg width="657" height="657" viewBox="0 0 657 657" fill="none" xmlns="http://www.w3.org/2000/svg">
<path opacity="0.1" d="M328.305 656.61C509.623 656.61 656.61 509.623 656.61 328.305C656.61 146.987 509.623 0 328.305 0C146.987 0 0 146.987 0 328.305C0 509.623 146.987 656.61 328.305 656.61Z" fill="#367CFF"/>
<path d="M186.583 228.039C187.787 226.724 189.238 225.658 190.853 224.903C192.469 224.148 194.217 223.719 195.999 223.639C197.78 223.56 199.56 223.832 201.236 224.441C202.912 225.049 204.452 225.982 205.768 227.186L248.613 266.38L230.281 286.419L187.436 247.225C186.12 246.021 185.055 244.57 184.3 242.954C183.545 241.339 183.115 239.59 183.036 237.809C182.957 236.027 183.229 234.248 183.838 232.571C184.447 230.895 185.379 229.355 186.583 228.039Z" fill="white"/>
<path d="M230.363 288.311L186.532 248.212C185.086 246.89 183.915 245.296 183.085 243.521C182.256 241.746 181.784 239.824 181.697 237.867C181.61 235.91 181.909 233.954 182.577 232.112C183.246 230.271 184.271 228.579 185.593 227.133C186.916 225.687 188.51 224.516 190.285 223.687C192.06 222.857 193.981 222.385 195.939 222.298C197.896 222.211 199.852 222.51 201.693 223.179C203.535 223.847 205.227 224.872 206.673 226.195L250.509 266.294L230.363 288.311ZM196.769 224.966C196.531 224.963 196.293 224.966 196.054 224.977C193.636 225.085 191.304 225.908 189.354 227.341C187.403 228.774 185.922 230.754 185.096 233.029C184.271 235.305 184.138 237.774 184.716 240.124C185.294 242.475 186.556 244.602 188.342 246.235L230.197 284.525L246.718 266.466L204.863 228.176C202.655 226.143 199.773 225 196.773 224.966L196.769 224.966Z" fill="#292A2E"/>
<path d="M425.48 288.879L407.66 268.385L451.48 230.283C454.197 227.92 457.742 226.733 461.335 226.984C464.928 227.234 468.273 228.902 470.637 231.62V231.62C473 234.337 474.186 237.882 473.936 241.475C473.685 245.068 472.017 248.414 469.3 250.777L425.48 288.879Z" fill="white"/>
<path d="M425.352 290.769L405.772 268.252L450.604 229.27C453.591 226.673 457.486 225.37 461.433 225.645C465.381 225.921 469.057 227.753 471.654 230.739C474.25 233.725 475.554 237.621 475.278 241.568C475.003 245.516 473.17 249.192 470.184 251.788L425.352 290.769ZM409.556 268.517L425.617 286.986L468.424 249.766C469.637 248.712 470.63 247.428 471.347 245.99C472.064 244.552 472.491 242.986 472.603 241.383C472.714 239.78 472.509 238.17 471.999 236.646C471.489 235.122 470.684 233.714 469.629 232.501C468.575 231.288 467.292 230.295 465.853 229.578C464.415 228.861 462.849 228.435 461.246 228.323C459.643 228.211 458.033 228.416 456.509 228.926C454.985 229.436 453.577 230.242 452.364 231.296L409.556 268.517Z" fill="#292A2E"/>
<path d="M443.211 314.245C452.336 357.171 465.222 384.875 458.433 400.608C454.865 408.878 447.667 415.759 435.899 415.61C417.555 415.379 417.827 393.745 399.482 393.513C381.136 393.282 380.867 414.916 362.523 414.685C344.18 414.454 344.454 392.82 326.113 392.588C307.771 392.357 307.498 413.991 289.155 413.76C270.812 413.529 271.086 391.895 252.745 391.664C234.403 391.432 234.132 413.067 215.793 412.835C204.904 412.698 198.829 406.208 195.019 398.747C185.862 380.825 208.22 341.921 217.121 307.479C226.955 269.42 226.767 221.858 228.383 193.194C231.501 137.917 274.522 93.5204 329.886 94.2183C385.251 94.9162 425.525 140.457 428.862 195.721C430.66 225.514 434.856 274.951 443.211 314.245Z" fill="white"/>
<path d="M435.882 416.963C426.083 416.84 421.288 411.037 416.648 405.42C412.207 400.045 408.011 394.97 399.465 394.862C390.919 394.755 386.603 399.723 382.023 404.983C377.244 410.476 372.303 416.162 362.506 416.038C352.709 415.915 347.914 410.112 343.276 404.495C338.834 399.12 334.639 394.045 326.096 393.937C317.552 393.83 313.234 398.798 308.655 404.058C303.876 409.552 298.936 415.237 289.138 415.113C279.34 414.99 274.542 409.187 269.913 403.576C265.471 398.202 261.277 393.126 252.733 393.019C244.188 392.911 239.87 397.879 235.294 403.14C230.517 408.633 225.577 414.318 215.781 414.194C206.036 414.072 198.853 409.223 193.819 399.368C187.435 386.873 195.567 365.023 204.178 341.894C208.454 330.405 212.873 318.526 215.817 307.149C223.682 276.711 225.082 240.847 226.205 212.028C226.47 205.212 226.721 198.772 227.043 193.126C228.588 165.764 239.795 140.421 258.602 121.764C267.951 112.422 279.08 105.052 291.329 100.09C303.578 95.1275 316.698 92.6743 329.913 92.8756C343.043 93.01 356.01 95.8001 368.034 101.078C380.057 106.356 390.888 114.012 399.875 123.586C417.78 142.492 428.557 168.086 430.222 195.648C431.826 222.225 435.819 272.934 444.543 313.973C447.502 327.893 450.855 340.197 453.814 351.053C459.99 373.723 464.454 390.101 459.682 401.153C457.091 407.136 450.565 417.148 435.882 416.963ZM399.499 392.162C409.298 392.285 414.094 398.088 418.733 403.705C423.176 409.079 427.371 414.155 435.916 414.262C449.03 414.428 454.875 405.446 457.192 400.075C461.587 389.893 457.222 373.898 451.193 351.759C448.23 340.868 444.862 328.525 441.888 314.532C433.127 273.318 429.121 222.457 427.512 195.807C424.101 139.324 382.124 96.233 329.868 95.5742C276.846 94.9058 232.861 137.82 229.729 193.274C229.412 198.896 229.161 205.324 228.891 212.128C227.822 239.548 226.358 277.101 218.42 307.821C215.445 319.333 210.997 331.281 206.697 342.834C198.3 365.39 190.369 386.699 196.213 398.137C200.747 407.01 207.154 411.375 215.8 411.484C224.343 411.592 228.662 406.624 233.239 401.363C238.015 395.869 242.955 390.185 252.752 390.309C262.548 390.432 267.345 396.235 271.982 401.852C276.423 407.226 280.618 412.302 289.162 412.409C297.706 412.517 302.029 407.548 306.604 402.288C311.383 396.794 316.323 391.11 326.12 391.233C335.917 391.357 340.713 397.161 345.35 402.777C349.792 408.151 353.985 413.227 362.53 413.334C371.075 413.442 375.397 408.473 379.973 403.213C384.761 397.723 389.701 392.038 399.499 392.162Z" fill="#292A2E"/>
<path d="M290.874 200.45C297.01 200.527 302.048 195.615 302.125 189.479C302.202 183.342 297.291 178.305 291.154 178.228C285.018 178.15 279.98 183.062 279.903 189.199C279.826 195.335 284.737 200.373 290.874 200.45Z" fill="#292A2E"/>
<path d="M367.065 201.41C373.201 201.488 378.239 196.576 378.316 190.439C378.393 184.303 373.482 179.266 367.345 179.188C361.209 179.111 356.171 184.023 356.094 190.159C356.016 196.296 360.928 201.333 367.065 201.41Z" fill="#292A2E"/>
<path d="M348.632 220.059C349.274 220.065 349.905 220.215 350.482 220.496C351.058 220.777 351.565 221.184 351.964 221.685C352.364 222.187 352.646 222.772 352.791 223.396C352.937 224.021 352.941 224.67 352.804 225.297C350.281 236.407 340.293 243.284 328.441 243.135C316.589 242.986 306.777 235.861 304.536 224.688C304.414 224.058 304.435 223.409 304.596 222.788C304.757 222.168 305.054 221.59 305.466 221.099C305.878 220.607 306.395 220.214 306.978 219.947C307.562 219.68 308.197 219.547 308.839 219.557L348.632 220.059Z" fill="white"/>
<path d="M328.423 244.487C315.654 244.326 305.522 236.477 303.209 224.953C303.044 224.133 303.066 223.286 303.272 222.475C303.478 221.664 303.864 220.91 304.4 220.268C304.941 219.613 305.622 219.088 306.393 218.732C307.164 218.375 308.005 218.197 308.855 218.209L348.651 218.711C349.501 218.72 350.337 218.92 351.099 219.296C351.86 219.671 352.528 220.213 353.052 220.881C353.572 221.537 353.939 222.301 354.124 223.117C354.31 223.932 354.31 224.779 354.125 225.595C351.518 237.056 341.189 244.648 328.423 244.487ZM308.819 220.909C308.372 220.903 307.931 220.997 307.526 221.184C307.121 221.372 306.763 221.647 306.479 221.991C306.2 222.324 306 222.716 305.892 223.136C305.785 223.557 305.774 223.996 305.859 224.422C307.913 234.662 316.994 241.639 328.455 241.783C339.916 241.928 349.17 235.182 351.482 224.997C351.578 224.573 351.577 224.134 351.48 223.711C351.383 223.287 351.193 222.891 350.922 222.552C350.647 222.201 350.296 221.916 349.897 221.718C349.497 221.521 349.057 221.416 348.611 221.411L308.819 220.909Z" fill="#292A2E"/>
<path d="M589.5 527.234C529.52 605.874 434.84 656.614 328.31 656.614C221.78 656.614 127.1 605.874 67.12 527.234C135.59 501.474 227.39 485.724 328.31 485.724C429.23 485.724 521.025 501.474 589.5 527.234Z" fill="#40BFFF"/>
<path d="M617.054 171.945L448.563 171.225C448.563 143.085 464.413 137.545 481.263 132.975C498.113 128.405 505.693 97.475 534.973 95.715C552.264 94.675 561.333 99.125 568.843 104.855C568.853 104.865 568.853 104.875 568.863 104.875C587.679 125.12 603.87 147.654 617.054 171.945V171.945Z" fill="white"/>
<path d="M136.433 381.035L4.31301 381.605C2.05626 367.81 0.686786 353.885 0.213013 339.915C29.153 335.815 26.193 312.815 60.753 314.905C86.393 316.445 93.053 343.535 107.803 347.535C122.553 351.535 136.433 356.4 136.433 381.035Z" fill="white"/>
</svg>
