<svg width="245" height="50" viewBox="0 0 245 50" fill="none" xmlns="http://www.w3.org/2000/svg">
<path d="M240.37 0.374146H4.44139C2.09365 0.374146 0.19043 2.27842 0.19043 4.62747V45.034C0.19043 47.3831 2.09365 49.2874 4.44139 49.2874H240.37C242.717 49.2874 244.621 47.3831 244.621 45.034V4.62747C244.621 2.27842 242.717 0.374146 240.37 0.374146Z" fill="#385C8E"/>
<path d="M34.8338 24.8924H36.5958V32.1529C36.5958 32.2217 36.6231 32.2877 36.6718 32.3363C36.7204 32.385 36.7863 32.4123 36.8551 32.4123H39.8435C39.9123 32.4123 39.9783 32.385 40.0269 32.3363C40.0755 32.2877 40.1029 32.2217 40.1029 32.1529V24.9265H42.1295C42.1931 24.9264 42.2544 24.9029 42.3018 24.8606C42.3492 24.8182 42.3794 24.7599 42.3867 24.6968L42.6949 22.0236C42.6991 21.9873 42.6956 21.9505 42.6846 21.9156C42.6735 21.8808 42.6553 21.8486 42.631 21.8213C42.6067 21.794 42.577 21.7722 42.5436 21.7572C42.5103 21.7422 42.4742 21.7344 42.4377 21.7343H40.0997V20.0596C40.0997 19.5545 40.3717 19.2982 40.9074 19.2982H42.4334C42.5022 19.2982 42.5682 19.2709 42.6168 19.2223C42.6654 19.1736 42.6928 19.1076 42.6928 19.0388V16.5857C42.6933 16.5172 42.6668 16.4513 42.6191 16.4023C42.5713 16.3534 42.5061 16.3252 42.4377 16.3241H40.3324H40.2357C39.2662 16.3275 38.3305 16.6805 37.6001 17.3183C37.2554 17.6197 36.991 18.002 36.8305 18.4309C36.6701 18.8599 36.6186 19.3219 36.6808 19.7757V21.7354H34.8306C34.7618 21.7354 34.6959 21.7627 34.6472 21.8114C34.5986 21.8601 34.5713 21.926 34.5713 21.9949V24.633C34.5713 24.6673 34.5781 24.7013 34.5913 24.733C34.6046 24.7647 34.6239 24.7934 34.6484 24.8176C34.6728 24.8417 34.7017 24.8608 34.7336 24.8736C34.7654 24.8865 34.7995 24.8929 34.8338 24.8924Z" fill="white"/>
<path d="M63.7157 29.1837C63.7157 25.1197 57.8277 26.6877 57.8277 24.1757C57.8277 23.1037 58.6437 22.5917 59.6997 22.6237C60.8517 22.6557 61.5077 23.3437 61.5717 24.0957H63.5877C63.4277 22.1917 61.9237 21.0717 59.7957 21.0717C57.5237 21.0717 55.9717 22.2877 55.9717 24.2397C55.9717 28.3357 61.8757 26.5917 61.8757 29.2797C61.8757 30.2237 61.1557 30.9117 59.8757 30.9117C58.6117 30.9117 57.9717 30.1757 57.8917 29.2637H55.9397C55.9397 31.2317 57.6517 32.4477 59.8757 32.4477C62.3557 32.4477 63.7157 30.8477 63.7157 29.1837ZM65.868 32.3357H67.692V27.4077C67.692 25.7917 68.572 24.9597 69.916 24.9597C71.244 24.9597 72.124 25.7917 72.124 27.4077V32.3357H73.932V27.1357C73.932 24.6717 72.396 23.3757 70.428 23.3757C69.292 23.3757 68.3 23.8077 67.692 24.5437V20.4957H65.868V32.3357ZM75.6506 27.8877C75.6506 30.6077 77.4906 32.4797 79.7786 32.4797C81.2506 32.4797 82.3066 31.7757 82.8666 31.0237V32.3357H84.7066V23.5197H82.8666V24.7997C82.3226 24.0797 81.2986 23.3757 79.8106 23.3757C77.4906 23.3757 75.6506 25.1677 75.6506 27.8877ZM82.8666 27.9197C82.8666 29.8237 81.5706 30.8957 80.1946 30.8957C78.8346 30.8957 77.5226 29.7917 77.5226 27.8877C77.5226 25.9837 78.8346 24.9597 80.1946 24.9597C81.5706 24.9597 82.8666 26.0317 82.8666 27.9197ZM88.9263 27.6957C88.9263 25.8237 89.7583 25.2637 91.1023 25.2637H91.5663V23.3757C90.3183 23.3757 89.4383 23.9197 88.9263 24.7997V23.5197H87.1023V32.3357H88.9263V27.6957ZM96.955 24.9117C98.315 24.9117 99.387 25.7757 99.419 27.1357H94.539C94.731 25.7437 95.723 24.9117 96.955 24.9117ZM101.083 29.7117H99.115C98.779 30.3997 98.155 30.9437 97.035 30.9437C95.691 30.9437 94.651 30.0637 94.523 28.6077H101.259C101.307 28.3037 101.323 28.0157 101.323 27.7117C101.323 25.1197 99.547 23.3757 97.035 23.3757C94.427 23.3757 92.635 25.1517 92.635 27.9197C92.635 30.6877 94.507 32.4797 97.035 32.4797C99.195 32.4797 100.587 31.2477 101.083 29.7117ZM115.674 27.9197C115.674 25.1517 113.69 23.3757 111.178 23.3757C108.666 23.3757 106.682 25.1517 106.682 27.9197C106.682 30.6877 108.586 32.4797 111.098 32.4797C113.626 32.4797 115.674 30.6877 115.674 27.9197ZM108.538 27.9197C108.538 25.9197 109.77 24.9597 111.146 24.9597C112.506 24.9597 113.802 25.9197 113.802 27.9197C113.802 29.9197 112.458 30.8957 111.098 30.8957C109.722 30.8957 108.538 29.9197 108.538 27.9197ZM123.733 32.3357H125.541V27.1357C125.541 24.6717 123.989 23.3757 121.925 23.3757C120.869 23.3757 119.893 23.8077 119.301 24.5277V23.5197H117.477V32.3357H119.301V27.4077C119.301 25.7917 120.181 24.9597 121.525 24.9597C122.853 24.9597 123.733 25.7917 123.733 27.4077V32.3357ZM132.024 32.3357H133.848V27.4717H137.528V25.9837H133.848V22.7037H138.568V21.2157H132.024V32.3357ZM139.651 27.8877C139.651 30.6077 141.491 32.4797 143.779 32.4797C145.251 32.4797 146.307 31.7757 146.867 31.0237V32.3357H148.707V23.5197H146.867V24.7997C146.323 24.0797 145.299 23.3757 143.811 23.3757C141.491 23.3757 139.651 25.1677 139.651 27.8877ZM146.867 27.9197C146.867 29.8237 145.571 30.8957 144.195 30.8957C142.835 30.8957 141.523 29.7917 141.523 27.8877C141.523 25.9837 142.835 24.9597 144.195 24.9597C145.571 24.9597 146.867 26.0317 146.867 27.9197ZM150.494 27.9197C150.494 30.6877 152.286 32.4797 154.814 32.4797C156.974 32.4797 158.382 31.2797 158.878 29.5517H156.91C156.574 30.4637 155.902 30.9437 154.814 30.9437C153.342 30.9437 152.366 29.8557 152.366 27.9197C152.366 25.9997 153.342 24.9117 154.814 24.9117C155.902 24.9117 156.606 25.4557 156.91 26.3037H158.878C158.382 24.4477 156.974 23.3757 154.814 23.3757C152.286 23.3757 150.494 25.1677 150.494 27.9197ZM164.408 24.9117C165.768 24.9117 166.84 25.7757 166.872 27.1357H161.992C162.184 25.7437 163.176 24.9117 164.408 24.9117ZM168.536 29.7117H166.568C166.232 30.3997 165.608 30.9437 164.488 30.9437C163.144 30.9437 162.104 30.0637 161.976 28.6077H168.712C168.76 28.3037 168.776 28.0157 168.776 27.7117C168.776 25.1197 167 23.3757 164.488 23.3757C161.88 23.3757 160.088 25.1517 160.088 27.9197C160.088 30.6877 161.96 32.4797 164.488 32.4797C166.648 32.4797 168.04 31.2477 168.536 29.7117ZM172.395 24.8317V20.4957H170.571V32.3357H172.395V31.0557C172.971 31.8237 174.011 32.4797 175.467 32.4797C177.787 32.4797 179.611 30.6077 179.611 27.8877C179.611 25.1677 177.803 23.3757 175.467 23.3757C174.075 23.3757 172.971 24.0317 172.395 24.8317ZM177.755 27.8877C177.755 29.7917 176.443 30.8957 175.067 30.8957C173.707 30.8957 172.395 29.8237 172.395 27.9197C172.395 26.0317 173.707 24.9597 175.067 24.9597C176.443 24.9597 177.755 25.9837 177.755 27.8877ZM189.815 27.9197C189.815 25.1517 187.831 23.3757 185.319 23.3757C182.807 23.3757 180.823 25.1517 180.823 27.9197C180.823 30.6877 182.727 32.4797 185.239 32.4797C187.767 32.4797 189.815 30.6877 189.815 27.9197ZM182.679 27.9197C182.679 25.9197 183.911 24.9597 185.287 24.9597C186.647 24.9597 187.943 25.9197 187.943 27.9197C187.943 29.9197 186.599 30.8957 185.239 30.8957C183.863 30.8957 182.679 29.9197 182.679 27.9197ZM200.018 27.9197C200.018 25.1517 198.034 23.3757 195.522 23.3757C193.01 23.3757 191.026 25.1517 191.026 27.9197C191.026 30.6877 192.93 32.4797 195.442 32.4797C197.97 32.4797 200.018 30.6877 200.018 27.9197ZM192.882 27.9197C192.882 25.9197 194.114 24.9597 195.49 24.9597C196.85 24.9597 198.146 25.9197 198.146 27.9197C198.146 29.9197 196.802 30.8957 195.442 30.8957C194.066 30.8957 192.882 29.9197 192.882 27.9197ZM201.821 32.3357H203.645V28.5437L206.909 32.3357H209.373L205.309 27.9357L209.373 23.5197H206.845L203.645 27.3757V20.4957H201.821V32.3357Z" fill="white"/>
</svg>
