<svg width="245" height="50" viewBox="0 0 245 50" fill="none" xmlns="http://www.w3.org/2000/svg">
<path d="M240.427 0.374161H4.49901C2.15127 0.374161 0.248047 2.27844 0.248047 4.62748V45.034C0.248047 47.3831 2.15127 49.2874 4.49901 49.2874H240.427C242.775 49.2874 244.678 47.3831 244.678 45.034V4.62748C244.678 2.27844 242.775 0.374161 240.427 0.374161Z" fill="#03A9F4"/>
<path d="M84.7616 28.1721C84.7616 24.1081 78.8736 25.6761 78.8736 23.1641C78.8736 22.0921 79.6896 21.5801 80.7456 21.6121C81.8976 21.6441 82.5536 22.3321 82.6176 23.0841H84.6336C84.4736 21.1801 82.9696 20.0601 80.8416 20.0601C78.5696 20.0601 77.0176 21.2761 77.0176 23.2281C77.0176 27.3241 82.9216 25.5801 82.9216 28.2681C82.9216 29.2121 82.2016 29.9001 80.9216 29.9001C79.6576 29.9001 79.0176 29.1641 78.9376 28.2521H76.9856C76.9856 30.2201 78.6976 31.4361 80.9216 31.4361C83.4016 31.4361 84.7616 29.8361 84.7616 28.1721ZM86.9139 31.3241H88.7379V26.3961C88.7379 24.7801 89.6179 23.9481 90.9619 23.9481C92.2899 23.9481 93.1699 24.7801 93.1699 26.3961V31.3241H94.9779V26.1241C94.9779 23.6601 93.4419 22.3641 91.4739 22.3641C90.3379 22.3641 89.3459 22.7961 88.7379 23.5321V19.4841H86.9139V31.3241ZM96.6965 26.8761C96.6965 29.5961 98.5365 31.4681 100.824 31.4681C102.296 31.4681 103.352 30.7641 103.912 30.0121V31.3241H105.752V22.5081H103.912V23.7881C103.368 23.0681 102.344 22.3641 100.856 22.3641C98.5365 22.3641 96.6965 24.1561 96.6965 26.8761ZM103.912 26.9081C103.912 28.8121 102.616 29.8841 101.24 29.8841C99.8805 29.8841 98.5685 28.7801 98.5685 26.8761C98.5685 24.9721 99.8805 23.9481 101.24 23.9481C102.616 23.9481 103.912 25.0201 103.912 26.9081ZM109.972 26.6841C109.972 24.8121 110.804 24.2521 112.148 24.2521H112.612V22.3641C111.364 22.3641 110.484 22.9081 109.972 23.7881V22.5081H108.148V31.3241H109.972V26.6841ZM118.001 23.9001C119.361 23.9001 120.433 24.7641 120.465 26.1241H115.585C115.777 24.7321 116.769 23.9001 118.001 23.9001ZM122.129 28.7001H120.161C119.825 29.3881 119.201 29.9321 118.081 29.9321C116.737 29.9321 115.697 29.0521 115.569 27.5961H122.305C122.353 27.2921 122.369 27.0041 122.369 26.7001C122.369 24.1081 120.593 22.3641 118.081 22.3641C115.473 22.3641 113.681 24.1401 113.681 26.9081C113.681 29.6761 115.553 31.4681 118.081 31.4681C120.241 31.4681 121.633 30.2361 122.129 28.7001ZM136.72 26.9081C136.72 24.1401 134.736 22.3641 132.224 22.3641C129.712 22.3641 127.728 24.1401 127.728 26.9081C127.728 29.6761 129.632 31.4681 132.144 31.4681C134.672 31.4681 136.72 29.6761 136.72 26.9081ZM129.584 26.9081C129.584 24.9081 130.816 23.9481 132.192 23.9481C133.552 23.9481 134.848 24.9081 134.848 26.9081C134.848 28.9081 133.504 29.8841 132.144 29.8841C130.768 29.8841 129.584 28.9081 129.584 26.9081ZM144.779 31.3241H146.587V26.1241C146.587 23.6601 145.035 22.3641 142.971 22.3641C141.915 22.3641 140.939 22.7961 140.347 23.5161V22.5081H138.523V31.3241H140.347V26.3961C140.347 24.7801 141.227 23.9481 142.571 23.9481C143.899 23.9481 144.779 24.7801 144.779 26.3961V31.3241ZM152.494 21.6921H155.47V31.3241H157.294V21.6921H160.254V20.2041H152.494V21.6921ZM163.813 31.3241H165.733L167.509 24.8121L169.285 31.3241H171.205L173.941 22.5081H172.149L170.325 29.5641L168.533 22.5081H166.629L164.757 29.5961L162.917 22.5081H161.061L163.813 31.3241ZM175.304 31.3241H177.128V22.5081H175.304V31.3241ZM176.232 21.3401C176.872 21.3401 177.384 20.8281 177.384 20.1721C177.384 19.5161 176.872 19.0041 176.232 19.0041C175.576 19.0041 175.064 19.5161 175.064 20.1721C175.064 20.8281 175.576 21.3401 176.232 21.3401ZM179.811 28.8761C179.811 30.6681 180.787 31.3241 182.355 31.3241H183.795V29.8041H182.675C181.907 29.8041 181.651 29.5321 181.651 28.8761V23.9961H183.795V22.5081H181.651V20.3161H179.811V22.5081H178.771V23.9961H179.811V28.8761ZM185.764 28.8761C185.764 30.6681 186.74 31.3241 188.308 31.3241H189.748V29.8041H188.628C187.86 29.8041 187.604 29.5321 187.604 28.8761V23.9961H189.748V22.5081H187.604V20.3161H185.764V22.5081H184.724V23.9961H185.764V28.8761ZM195.141 23.9001C196.501 23.9001 197.573 24.7641 197.605 26.1241H192.725C192.917 24.7321 193.909 23.9001 195.141 23.9001ZM199.269 28.7001H197.301C196.965 29.3881 196.341 29.9321 195.221 29.9321C193.877 29.9321 192.837 29.0521 192.709 27.5961H199.445C199.493 27.2921 199.509 27.0041 199.509 26.7001C199.509 24.1081 197.733 22.3641 195.221 22.3641C192.613 22.3641 190.821 24.1401 190.821 26.9081C190.821 29.6761 192.693 31.4681 195.221 31.4681C197.381 31.4681 198.773 30.2361 199.269 28.7001ZM203.128 26.6841C203.128 24.8121 203.96 24.2521 205.304 24.2521H205.768V22.3641C204.52 22.3641 203.64 22.9081 203.128 23.7881V22.5081H201.304V31.3241H203.128V26.6841Z" fill="white"/>
<path d="M61.8627 20.5389C61.2128 20.7943 60.5254 20.964 59.8218 21.043C60.5636 20.6469 61.1184 20.0196 61.3808 19.28C60.6871 19.6504 59.9281 19.9115 59.1368 20.0519C58.6512 19.584 58.0203 19.2586 57.3264 19.1178C56.6325 18.9771 55.9076 19.0277 55.2461 19.263C54.5845 19.4983 54.017 19.9073 53.6172 20.437C53.2174 20.9667 53.004 21.5924 53.0047 22.2328C53.0021 22.4773 53.0298 22.7212 53.0873 22.9601C51.6779 22.8978 50.2989 22.5684 49.0405 21.9935C47.7821 21.4185 46.6727 20.6109 45.7848 19.6234C45.3288 20.3251 45.1875 21.1571 45.3899 21.9494C45.5923 22.7416 46.123 23.4345 46.8737 23.8863C46.313 23.8729 45.7642 23.7383 45.2734 23.4939V23.529C45.2741 24.2651 45.5563 24.9786 46.0725 25.5494C46.5887 26.1203 47.3075 26.5137 48.1079 26.6637C47.8047 26.7361 47.4921 26.7719 47.1784 26.77C46.9533 26.7737 46.7284 26.7555 46.5076 26.7158C46.7362 27.3484 47.177 27.9018 47.7691 28.2997C48.3613 28.6977 49.0759 28.9207 49.8146 28.9382C48.5619 29.8193 47.0178 30.2977 45.4281 30.2971C45.1447 30.2989 44.8614 30.2843 44.5801 30.2535C46.1995 31.1929 48.0865 31.69 50.013 31.6847C51.3396 31.6931 52.6549 31.464 53.8824 31.0108C55.1098 30.5577 56.2251 29.8895 57.1633 29.045C58.1015 28.2005 58.844 27.1966 59.3476 26.0916C59.8512 24.9866 60.1059 23.8026 60.097 22.6082C60.097 22.4668 60.097 22.3307 60.084 22.1956C60.7839 21.7454 61.3867 21.184 61.8627 20.5389Z" fill="white"/>
</svg>
