<svg width="252" height="40" viewBox="0 0 252 40" fill="none" xmlns="http://www.w3.org/2000/svg">
<rect width="252" height="40" rx="8" fill="white"/>
<rect x="0.5" y="0.5" width="251" height="39" rx="7.5" stroke="#223263"/>
<path d="M65.8044 17.4205C65.7438 16.8826 65.4938 16.4659 65.0544 16.1705C64.615 15.8712 64.062 15.7216 63.3953 15.7216C62.918 15.7216 62.5051 15.7973 62.1566 15.9489C61.8082 16.0966 61.5373 16.3011 61.3441 16.5625C61.1548 16.8201 61.0601 17.1136 61.0601 17.4432C61.0601 17.7197 61.1245 17.9583 61.2532 18.1591C61.3858 18.3598 61.5582 18.5284 61.7703 18.6648C61.9862 18.7973 62.2173 18.9091 62.4635 19C62.7097 19.0871 62.9464 19.1591 63.1737 19.2159L64.3101 19.5114C64.6813 19.6023 65.062 19.7254 65.4521 19.8807C65.8423 20.036 66.204 20.2405 66.5373 20.4943C66.8707 20.7481 67.1396 21.0625 67.3441 21.4375C67.5525 21.8125 67.6566 22.2614 67.6566 22.7841C67.6566 23.4432 67.4862 24.0284 67.1453 24.5398C66.8082 25.0511 66.3176 25.4545 65.6737 25.75C65.0335 26.0455 64.2589 26.1932 63.3498 26.1932C62.4786 26.1932 61.7248 26.0549 61.0885 25.7784C60.4521 25.5019 59.954 25.1098 59.5941 24.6023C59.2343 24.0909 59.0354 23.4848 58.9976 22.7841H60.7589C60.793 23.2045 60.9294 23.5549 61.168 23.8352C61.4104 24.1117 61.7191 24.3182 62.0941 24.4545C62.4729 24.5871 62.8877 24.6534 63.3385 24.6534C63.8347 24.6534 64.276 24.5758 64.6623 24.4205C65.0525 24.2614 65.3593 24.0417 65.5828 23.7614C65.8063 23.4773 65.918 23.1458 65.918 22.767C65.918 22.4223 65.8195 22.1402 65.6226 21.9205C65.4294 21.7008 65.1661 21.5189 64.8328 21.375C64.5032 21.2311 64.1301 21.1042 63.7135 20.9943L62.3385 20.6193C61.4066 20.3655 60.668 19.9924 60.1226 19.5C59.5809 19.0076 59.3101 18.3561 59.3101 17.5455C59.3101 16.875 59.4919 16.2898 59.8555 15.7898C60.2191 15.2898 60.7116 14.9015 61.3328 14.625C61.954 14.3447 62.6548 14.2045 63.4351 14.2045C64.2229 14.2045 64.918 14.3428 65.5203 14.6193C66.1263 14.8958 66.6036 15.2765 66.9521 15.7614C67.3006 16.2424 67.4824 16.7955 67.4976 17.4205H65.8044ZM70.0583 26V17.2727H71.7572V26H70.0583ZM70.9162 15.9261C70.6208 15.9261 70.367 15.8277 70.1549 15.6307C69.9466 15.4299 69.8424 15.1913 69.8424 14.9148C69.8424 14.6345 69.9466 14.3958 70.1549 14.1989C70.367 13.9981 70.6208 13.8977 70.9162 13.8977C71.2117 13.8977 71.4636 13.9981 71.6719 14.1989C71.8841 14.3958 71.9901 14.6345 71.9901 14.9148C71.9901 15.1913 71.8841 15.4299 71.6719 15.6307C71.4636 15.8277 71.2117 15.9261 70.9162 15.9261ZM78.1418 29.4545C77.4486 29.4545 76.852 29.3636 76.352 29.1818C75.8558 29 75.4505 28.7595 75.1361 28.4602C74.8217 28.161 74.5868 27.8333 74.4315 27.4773L75.8918 26.875C75.994 27.0417 76.1304 27.2178 76.3009 27.4034C76.4751 27.5928 76.7099 27.7538 77.0054 27.8864C77.3046 28.0189 77.6891 28.0852 78.1588 28.0852C78.8027 28.0852 79.3349 27.928 79.7554 27.6136C80.1759 27.303 80.3861 26.8068 80.3861 26.125V24.4091H80.2781C80.1759 24.5947 80.0281 24.8011 79.8349 25.0284C79.6456 25.2557 79.3842 25.4527 79.0509 25.6193C78.7175 25.786 78.2838 25.8693 77.7497 25.8693C77.0603 25.8693 76.4391 25.7083 75.8861 25.3864C75.3368 25.0606 74.9012 24.5814 74.5793 23.9489C74.2611 23.3125 74.102 22.5303 74.102 21.6023C74.102 20.6742 74.2592 19.8788 74.5736 19.2159C74.8918 18.553 75.3274 18.0455 75.8804 17.6932C76.4334 17.3371 77.0603 17.1591 77.7611 17.1591C78.3027 17.1591 78.7402 17.25 79.0736 17.4318C79.4069 17.6098 79.6664 17.8182 79.852 18.0568C80.0414 18.2955 80.1872 18.5057 80.2895 18.6875H80.4145V17.2727H82.0793V26.1932C82.0793 26.9432 81.905 27.5587 81.5565 28.0398C81.2081 28.5208 80.7365 28.8769 80.1418 29.108C79.5509 29.339 78.8842 29.4545 78.1418 29.4545ZM78.1247 24.4602C78.6134 24.4602 79.0262 24.3466 79.3634 24.1193C79.7043 23.8883 79.9618 23.5587 80.1361 23.1307C80.3141 22.6989 80.4031 22.1818 80.4031 21.5795C80.4031 20.9924 80.316 20.4754 80.1418 20.0284C79.9675 19.5814 79.7118 19.233 79.3747 18.983C79.0376 18.7292 78.6209 18.6023 78.1247 18.6023C77.6134 18.6023 77.1872 18.7348 76.8463 19C76.5054 19.2614 76.2478 19.6174 76.0736 20.0682C75.9031 20.5189 75.8179 21.0227 75.8179 21.5795C75.8179 22.1515 75.905 22.6534 76.0793 23.0852C76.2535 23.517 76.5111 23.8542 76.852 24.0966C77.1967 24.339 77.6209 24.4602 78.1247 24.4602ZM86.4965 20.8182V26H84.7977V17.2727H86.4284V18.6932H86.5363C86.7371 18.2311 87.0515 17.8598 87.4795 17.5795C87.9113 17.2992 88.4549 17.1591 89.1102 17.1591C89.7049 17.1591 90.2257 17.2841 90.6727 17.5341C91.1196 17.7803 91.4662 18.1477 91.7124 18.6364C91.9587 19.125 92.0818 19.7292 92.0818 20.4489V26H90.3829V20.6534C90.3829 20.0208 90.2181 19.5265 89.8886 19.1705C89.559 18.8106 89.1064 18.6307 88.5306 18.6307C88.1367 18.6307 87.7863 18.7159 87.4795 18.8864C87.1765 19.0568 86.9359 19.3068 86.7579 19.6364C86.5837 19.9621 86.4965 20.3561 86.4965 20.8182ZM105.003 22.3807V17.2727H106.708V26H105.037V24.4886H104.946C104.745 24.9545 104.423 25.3428 103.98 25.6534C103.541 25.9602 102.993 26.1136 102.338 26.1136C101.778 26.1136 101.281 25.9905 100.85 25.7443C100.422 25.4943 100.084 25.125 99.8382 24.6364C99.5958 24.1477 99.4745 23.5436 99.4745 22.8239V17.2727H101.173V22.6193C101.173 23.214 101.338 23.6875 101.668 24.0398C101.997 24.392 102.425 24.5682 102.952 24.5682C103.27 24.5682 103.586 24.4886 103.901 24.3295C104.219 24.1705 104.482 23.9299 104.69 23.608C104.903 23.286 105.007 22.8769 105.003 22.3807ZM109.43 29.2727V17.2727H111.089V18.6875H111.231C111.33 18.5057 111.472 18.2955 111.657 18.0568C111.843 17.8182 112.101 17.6098 112.43 17.4318C112.76 17.25 113.195 17.1591 113.737 17.1591C114.442 17.1591 115.07 17.3371 115.623 17.6932C116.176 18.0492 116.61 18.5625 116.924 19.233C117.243 19.9034 117.402 20.7102 117.402 21.6534C117.402 22.5966 117.245 23.4053 116.93 24.0795C116.616 24.75 116.184 25.267 115.635 25.6307C115.085 25.9905 114.459 26.1705 113.754 26.1705C113.224 26.1705 112.79 26.0814 112.453 25.9034C112.12 25.7254 111.858 25.517 111.669 25.2784C111.479 25.0398 111.334 24.8277 111.231 24.642H111.129V29.2727H109.43ZM111.095 21.6364C111.095 22.25 111.184 22.7879 111.362 23.25C111.54 23.7121 111.798 24.0739 112.135 24.3352C112.472 24.5928 112.885 24.7216 113.373 24.7216C113.881 24.7216 114.305 24.5871 114.646 24.3182C114.987 24.0455 115.245 23.6761 115.419 23.2102C115.597 22.7443 115.686 22.2197 115.686 21.6364C115.686 21.0606 115.599 20.5436 115.424 20.0852C115.254 19.6269 114.996 19.2652 114.652 19C114.311 18.7348 113.885 18.6023 113.373 18.6023C112.881 18.6023 112.464 18.7292 112.123 18.983C111.786 19.2367 111.531 19.5909 111.356 20.0455C111.182 20.5 111.095 21.0303 111.095 21.6364ZM126.312 26L123.743 17.2727H125.499L127.209 23.6818H127.295L129.01 17.2727H130.766L132.471 23.6534H132.556L134.255 17.2727H136.01L133.448 26H131.715L129.942 19.6989H129.812L128.039 26H126.312ZM138.063 26V17.2727H139.762V26H138.063ZM138.921 15.9261C138.625 15.9261 138.371 15.8277 138.159 15.6307C137.951 15.4299 137.847 15.1913 137.847 14.9148C137.847 14.6345 137.951 14.3958 138.159 14.1989C138.371 13.9981 138.625 13.8977 138.921 13.8977C139.216 13.8977 139.468 13.9981 139.676 14.1989C139.888 14.3958 139.994 14.6345 139.994 14.9148C139.994 15.1913 139.888 15.4299 139.676 15.6307C139.468 15.8277 139.216 15.9261 138.921 15.9261ZM146.561 17.2727V18.6364H141.794V17.2727H146.561ZM143.072 15.1818H144.771V23.4375C144.771 23.767 144.82 24.0152 144.919 24.1818C145.017 24.3447 145.144 24.4564 145.3 24.517C145.459 24.5739 145.631 24.6023 145.817 24.6023C145.953 24.6023 146.072 24.5928 146.175 24.5739C146.277 24.5549 146.356 24.5398 146.413 24.5284L146.72 25.9318C146.622 25.9697 146.481 26.0076 146.3 26.0455C146.118 26.0871 145.89 26.1098 145.618 26.1136C145.171 26.1212 144.754 26.0417 144.368 25.875C143.981 25.7083 143.669 25.4508 143.43 25.1023C143.192 24.7538 143.072 24.3163 143.072 23.7898V15.1818ZM150.767 20.8182V26H149.068V14.3636H150.744V18.6932H150.852C151.056 18.2235 151.369 17.8504 151.789 17.5739C152.21 17.2973 152.759 17.1591 153.437 17.1591C154.035 17.1591 154.558 17.2822 155.005 17.5284C155.456 17.7746 155.804 18.142 156.051 18.6307C156.301 19.1155 156.426 19.7216 156.426 20.4489V26H154.727V20.6534C154.727 20.0133 154.562 19.517 154.232 19.1648C153.903 18.8087 153.445 18.6307 152.857 18.6307C152.456 18.6307 152.096 18.7159 151.778 18.8864C151.463 19.0568 151.215 19.3068 151.034 19.6364C150.856 19.9621 150.767 20.3561 150.767 20.8182ZM171.818 18.0398C171.709 17.6951 171.561 17.3864 171.375 17.1136C171.193 16.8371 170.976 16.6023 170.722 16.4091C170.468 16.2121 170.178 16.0625 169.853 15.9602C169.531 15.858 169.176 15.8068 168.79 15.8068C168.135 15.8068 167.544 15.9754 167.017 16.3125C166.491 16.6496 166.074 17.1439 165.767 17.7955C165.464 18.4432 165.313 19.2367 165.313 20.1761C165.313 21.1193 165.466 21.9167 165.773 22.5682C166.08 23.2197 166.5 23.714 167.034 24.0511C167.568 24.3883 168.176 24.5568 168.858 24.5568C169.491 24.5568 170.042 24.428 170.512 24.1705C170.985 23.9129 171.351 23.5492 171.608 23.0795C171.87 22.6061 172 22.0492 172 21.4091L172.455 21.4943H169.125V20.0455H173.699V21.3693C173.699 22.3466 173.491 23.1951 173.074 23.9148C172.661 24.6307 172.089 25.1837 171.358 25.5739C170.631 25.964 169.798 26.1591 168.858 26.1591C167.805 26.1591 166.881 25.9167 166.085 25.4318C165.294 24.947 164.676 24.2595 164.233 23.3693C163.79 22.4754 163.568 21.4148 163.568 20.1875C163.568 19.2595 163.697 18.4261 163.955 17.6875C164.212 16.9489 164.574 16.322 165.04 15.8068C165.51 15.2879 166.061 14.892 166.693 14.6193C167.33 14.3428 168.025 14.2045 168.779 14.2045C169.407 14.2045 169.993 14.2973 170.534 14.483C171.08 14.6686 171.565 14.9318 171.989 15.2727C172.417 15.6136 172.771 16.0189 173.051 16.4886C173.332 16.9545 173.521 17.4716 173.62 18.0398H171.818ZM179.908 26.1761C179.089 26.1761 178.375 25.9886 177.766 25.6136C177.156 25.2386 176.682 24.714 176.345 24.0398C176.008 23.3655 175.839 22.5777 175.839 21.6761C175.839 20.7708 176.008 19.9792 176.345 19.3011C176.682 18.6231 177.156 18.0966 177.766 17.7216C178.375 17.3466 179.089 17.1591 179.908 17.1591C180.726 17.1591 181.44 17.3466 182.05 17.7216C182.659 18.0966 183.133 18.6231 183.47 19.3011C183.807 19.9792 183.976 20.7708 183.976 21.6761C183.976 22.5777 183.807 23.3655 183.47 24.0398C183.133 24.714 182.659 25.2386 182.05 25.6136C181.44 25.9886 180.726 26.1761 179.908 26.1761ZM179.913 24.75C180.444 24.75 180.883 24.6098 181.231 24.3295C181.58 24.0492 181.837 23.6761 182.004 23.2102C182.175 22.7443 182.26 22.2311 182.26 21.6705C182.26 21.1136 182.175 20.6023 182.004 20.1364C181.837 19.6667 181.58 19.2898 181.231 19.0057C180.883 18.7216 180.444 18.5795 179.913 18.5795C179.379 18.5795 178.936 18.7216 178.584 19.0057C178.235 19.2898 177.976 19.6667 177.805 20.1364C177.639 20.6023 177.555 21.1136 177.555 21.6705C177.555 22.2311 177.639 22.7443 177.805 23.2102C177.976 23.6761 178.235 24.0492 178.584 24.3295C178.936 24.6098 179.379 24.75 179.913 24.75ZM189.988 26.1761C189.17 26.1761 188.456 25.9886 187.846 25.6136C187.236 25.2386 186.763 24.714 186.426 24.0398C186.089 23.3655 185.92 22.5777 185.92 21.6761C185.92 20.7708 186.089 19.9792 186.426 19.3011C186.763 18.6231 187.236 18.0966 187.846 17.7216C188.456 17.3466 189.17 17.1591 189.988 17.1591C190.806 17.1591 191.52 17.3466 192.13 17.7216C192.74 18.0966 193.214 18.6231 193.551 19.3011C193.888 19.9792 194.056 20.7708 194.056 21.6761C194.056 22.5777 193.888 23.3655 193.551 24.0398C193.214 24.714 192.74 25.2386 192.13 25.6136C191.52 25.9886 190.806 26.1761 189.988 26.1761ZM189.994 24.75C190.524 24.75 190.964 24.6098 191.312 24.3295C191.661 24.0492 191.918 23.6761 192.085 23.2102C192.255 22.7443 192.34 22.2311 192.34 21.6705C192.34 21.1136 192.255 20.6023 192.085 20.1364C191.918 19.6667 191.661 19.2898 191.312 19.0057C190.964 18.7216 190.524 18.5795 189.994 18.5795C189.46 18.5795 189.017 18.7216 188.664 19.0057C188.316 19.2898 188.056 19.6667 187.886 20.1364C187.719 20.6023 187.636 21.1136 187.636 21.6705C187.636 22.2311 187.719 22.7443 187.886 23.2102C188.056 23.6761 188.316 24.0492 188.664 24.3295C189.017 24.6098 189.46 24.75 189.994 24.75ZM200.052 29.4545C199.359 29.4545 198.762 29.3636 198.262 29.1818C197.766 29 197.36 28.7595 197.046 28.4602C196.732 28.161 196.497 27.8333 196.342 27.4773L197.802 26.875C197.904 27.0417 198.04 27.2178 198.211 27.4034C198.385 27.5928 198.62 27.7538 198.915 27.8864C199.215 28.0189 199.599 28.0852 200.069 28.0852C200.713 28.0852 201.245 27.928 201.665 27.6136C202.086 27.303 202.296 26.8068 202.296 26.125V24.4091H202.188C202.086 24.5947 201.938 24.8011 201.745 25.0284C201.556 25.2557 201.294 25.4527 200.961 25.6193C200.628 25.786 200.194 25.8693 199.66 25.8693C198.97 25.8693 198.349 25.7083 197.796 25.3864C197.247 25.0606 196.811 24.5814 196.489 23.9489C196.171 23.3125 196.012 22.5303 196.012 21.6023C196.012 20.6742 196.169 19.8788 196.484 19.2159C196.802 18.553 197.237 18.0455 197.79 17.6932C198.343 17.3371 198.97 17.1591 199.671 17.1591C200.213 17.1591 200.65 17.25 200.984 17.4318C201.317 17.6098 201.576 17.8182 201.762 18.0568C201.951 18.2955 202.097 18.5057 202.199 18.6875H202.324V17.2727H203.989V26.1932C203.989 26.9432 203.815 27.5587 203.467 28.0398C203.118 28.5208 202.646 28.8769 202.052 29.108C201.461 29.339 200.794 29.4545 200.052 29.4545ZM200.035 24.4602C200.523 24.4602 200.936 24.3466 201.273 24.1193C201.614 23.8883 201.872 23.5587 202.046 23.1307C202.224 22.6989 202.313 22.1818 202.313 21.5795C202.313 20.9924 202.226 20.4754 202.052 20.0284C201.878 19.5814 201.622 19.233 201.285 18.983C200.948 18.7292 200.531 18.6023 200.035 18.6023C199.523 18.6023 199.097 18.7348 198.756 19C198.415 19.2614 198.158 19.6174 197.984 20.0682C197.813 20.5189 197.728 21.0227 197.728 21.5795C197.728 22.1515 197.815 22.6534 197.989 23.0852C198.163 23.517 198.421 23.8542 198.762 24.0966C199.107 24.339 199.531 24.4602 200.035 24.4602ZM208.407 14.3636V26H206.708V14.3636H208.407ZM214.893 26.1761C214.034 26.1761 213.293 25.9924 212.672 25.625C212.054 25.2538 211.577 24.733 211.24 24.0625C210.907 23.3883 210.74 22.5985 210.74 21.6932C210.74 20.7992 210.907 20.0114 211.24 19.3295C211.577 18.6477 212.047 18.1155 212.649 17.733C213.255 17.3504 213.963 17.1591 214.774 17.1591C215.267 17.1591 215.744 17.2405 216.206 17.4034C216.668 17.5663 217.083 17.822 217.45 18.1705C217.818 18.5189 218.107 18.9716 218.32 19.5284C218.532 20.0814 218.638 20.7538 218.638 21.5455V22.1477H211.7V20.875H216.973C216.973 20.428 216.882 20.0322 216.7 19.6875C216.518 19.339 216.263 19.0644 215.933 18.8636C215.607 18.6629 215.225 18.5625 214.785 18.5625C214.308 18.5625 213.892 18.6799 213.535 18.9148C213.183 19.1458 212.91 19.4489 212.717 19.8239C212.528 20.1951 212.433 20.5985 212.433 21.0341V22.0284C212.433 22.6117 212.535 23.108 212.74 23.517C212.948 23.9261 213.238 24.2386 213.609 24.4545C213.981 24.6667 214.414 24.7727 214.91 24.7727C215.232 24.7727 215.526 24.7273 215.791 24.6364C216.056 24.5417 216.285 24.4015 216.479 24.2159C216.672 24.0303 216.82 23.8011 216.922 23.5284L218.53 23.8182C218.401 24.2917 218.17 24.7064 217.837 25.0625C217.507 25.4148 217.092 25.6894 216.592 25.8864C216.096 26.0795 215.53 26.1761 214.893 26.1761Z" fill="#223263"/>
<g clip-path="url(#clip0_497_111)">
<path d="M36.7619 20.1883C36.7619 19.3689 36.6954 18.7709 36.5515 18.1509H27.1948V21.8492H32.687C32.5763 22.7683 31.9783 24.1524 30.6496 25.0825L30.6309 25.2063L33.5893 27.4982L33.7943 27.5186C35.6767 25.7802 36.7619 23.2223 36.7619 20.1883Z" fill="#4285F4"/>
<path d="M27.1947 29.9313C29.8854 29.9313 32.1443 29.0454 33.7942 27.5173L30.6495 25.0812C29.8079 25.6681 28.6785 26.0778 27.1947 26.0778C24.5594 26.0778 22.3226 24.3394 21.5253 21.9365L21.4084 21.9464L18.3322 24.3271L18.292 24.439C19.9308 27.6944 23.297 29.9313 27.1947 29.9313Z" fill="#34A853"/>
<path d="M21.5253 21.9378C21.3149 21.3177 21.1931 20.6533 21.1931 19.9668C21.1931 19.2802 21.3149 18.6159 21.5142 17.9958L21.5086 17.8638L18.3939 15.4448L18.292 15.4933C17.6166 16.8442 17.229 18.3612 17.229 19.9668C17.229 21.5724 17.6166 23.0893 18.292 24.4403L21.5253 21.9378Z" fill="#FBBC05"/>
<path d="M27.1947 13.8534C29.066 13.8534 30.3283 14.6617 31.048 15.3372L33.8605 12.5911C32.1332 10.9855 29.8854 10 27.1947 10C23.297 10 19.9308 12.2367 18.292 15.4921L21.5142 17.9947C22.3226 15.5918 24.5593 13.8534 27.1947 13.8534Z" fill="#EB4335"/>
</g>
<defs>
<clipPath id="clip0_497_111">
<rect width="20" height="20" fill="white" transform="translate(17 10)"/>
</clipPath>
</defs>
</svg>
