<svg width="252" height="40" viewBox="0 0 252 40" fill="none" xmlns="http://www.w3.org/2000/svg">
<rect width="252" height="40" rx="8" fill="white"/>
<rect x="0.5" y="0.5" width="251" height="39" rx="7.5" stroke="#223263"/>
<path d="M68.7262 17.4205C68.6656 16.8826 68.4156 16.4659 67.9762 16.1705C67.5369 15.8712 66.9838 15.7216 66.3172 15.7216C65.8399 15.7216 65.427 15.7973 65.0785 15.9489C64.73 16.0966 64.4592 16.3011 64.266 16.5625C64.0766 16.8201 63.9819 17.1136 63.9819 17.4432C63.9819 17.7197 64.0463 17.9583 64.1751 18.1591C64.3077 18.3598 64.48 18.5284 64.6922 18.6648C64.9081 18.7973 65.1391 18.9091 65.3853 19C65.6316 19.0871 65.8683 19.1591 66.0956 19.2159L67.2319 19.5114C67.6031 19.6023 67.9838 19.7254 68.374 19.8807C68.7641 20.036 69.1259 20.2405 69.4592 20.4943C69.7925 20.7481 70.0615 21.0625 70.266 21.4375C70.4744 21.8125 70.5785 22.2614 70.5785 22.7841C70.5785 23.4432 70.4081 24.0284 70.0672 24.5398C69.73 25.0511 69.2395 25.4545 68.5956 25.75C67.9554 26.0455 67.1808 26.1932 66.2717 26.1932C65.4005 26.1932 64.6467 26.0549 64.0103 25.7784C63.374 25.5019 62.8759 25.1098 62.516 24.6023C62.1562 24.0909 61.9573 23.4848 61.9194 22.7841H63.6808C63.7149 23.2045 63.8512 23.5549 64.0899 23.8352C64.3323 24.1117 64.641 24.3182 65.016 24.4545C65.3948 24.5871 65.8096 24.6534 66.2603 24.6534C66.7566 24.6534 67.1978 24.5758 67.5842 24.4205C67.9744 24.2614 68.2812 24.0417 68.5047 23.7614C68.7281 23.4773 68.8399 23.1458 68.8399 22.767C68.8399 22.4223 68.7414 22.1402 68.5444 21.9205C68.3513 21.7008 68.088 21.5189 67.7547 21.375C67.4251 21.2311 67.052 21.1042 66.6353 20.9943L65.2603 20.6193C64.3285 20.3655 63.5899 19.9924 63.0444 19.5C62.5028 19.0076 62.2319 18.3561 62.2319 17.5455C62.2319 16.875 62.4137 16.2898 62.7774 15.7898C63.141 15.2898 63.6334 14.9015 64.2547 14.625C64.8759 14.3447 65.5766 14.2045 66.3569 14.2045C67.1448 14.2045 67.8399 14.3428 68.4422 14.6193C69.0482 14.8958 69.5255 15.2765 69.874 15.7614C70.2225 16.2424 70.4043 16.7955 70.4194 17.4205H68.7262ZM72.9802 26V17.2727H74.679V26H72.9802ZM73.8381 15.9261C73.5427 15.9261 73.2889 15.8277 73.0768 15.6307C72.8684 15.4299 72.7643 15.1913 72.7643 14.9148C72.7643 14.6345 72.8684 14.3958 73.0768 14.1989C73.2889 13.9981 73.5427 13.8977 73.8381 13.8977C74.1336 13.8977 74.3855 13.9981 74.5938 14.1989C74.8059 14.3958 74.912 14.6345 74.912 14.9148C74.912 15.1913 74.8059 15.4299 74.5938 15.6307C74.3855 15.8277 74.1336 15.9261 73.8381 15.9261ZM81.0636 29.4545C80.3705 29.4545 79.7739 29.3636 79.2739 29.1818C78.7777 29 78.3723 28.7595 78.058 28.4602C77.7436 28.161 77.5087 27.8333 77.3534 27.4773L78.8136 26.875C78.9159 27.0417 79.0523 27.2178 79.2227 27.4034C79.397 27.5928 79.6318 27.7538 79.9273 27.8864C80.2265 28.0189 80.611 28.0852 81.0807 28.0852C81.7246 28.0852 82.2568 27.928 82.6773 27.6136C83.0977 27.303 83.308 26.8068 83.308 26.125V24.4091H83.2C83.0977 24.5947 82.95 24.8011 82.7568 25.0284C82.5674 25.2557 82.3061 25.4527 81.9727 25.6193C81.6394 25.786 81.2057 25.8693 80.6716 25.8693C79.9822 25.8693 79.361 25.7083 78.808 25.3864C78.2587 25.0606 77.8231 24.5814 77.5011 23.9489C77.183 23.3125 77.0239 22.5303 77.0239 21.6023C77.0239 20.6742 77.1811 19.8788 77.4955 19.2159C77.8136 18.553 78.2492 18.0455 78.8023 17.6932C79.3553 17.3371 79.9822 17.1591 80.683 17.1591C81.2246 17.1591 81.6621 17.25 81.9955 17.4318C82.3288 17.6098 82.5883 17.8182 82.7739 18.0568C82.9633 18.2955 83.1091 18.5057 83.2114 18.6875H83.3364V17.2727H85.0011V26.1932C85.0011 26.9432 84.8269 27.5587 84.4784 28.0398C84.1299 28.5208 83.6583 28.8769 83.0636 29.108C82.4727 29.339 81.8061 29.4545 81.0636 29.4545ZM81.0466 24.4602C81.5352 24.4602 81.9481 24.3466 82.2852 24.1193C82.6261 23.8883 82.8837 23.5587 83.058 23.1307C83.236 22.6989 83.325 22.1818 83.325 21.5795C83.325 20.9924 83.2379 20.4754 83.0636 20.0284C82.8894 19.5814 82.6337 19.233 82.2966 18.983C81.9595 18.7292 81.5428 18.6023 81.0466 18.6023C80.5352 18.6023 80.1091 18.7348 79.7682 19C79.4273 19.2614 79.1697 19.6174 78.9955 20.0682C78.825 20.5189 78.7398 21.0227 78.7398 21.5795C78.7398 22.1515 78.8269 22.6534 79.0011 23.0852C79.1754 23.517 79.433 23.8542 79.7739 24.0966C80.1186 24.339 80.5428 24.4602 81.0466 24.4602ZM89.4184 20.8182V26H87.7195V17.2727H89.3502V18.6932H89.4582C89.6589 18.2311 89.9733 17.8598 90.4014 17.5795C90.8332 17.2992 91.3767 17.1591 92.032 17.1591C92.6267 17.1591 93.1476 17.2841 93.5945 17.5341C94.0415 17.7803 94.3881 18.1477 94.6343 18.6364C94.8805 19.125 95.0036 19.7292 95.0036 20.4489V26H93.3048V20.6534C93.3048 20.0208 93.14 19.5265 92.8105 19.1705C92.4809 18.8106 92.0283 18.6307 91.4525 18.6307C91.0586 18.6307 90.7082 18.7159 90.4014 18.8864C90.0983 19.0568 89.8578 19.3068 89.6798 19.6364C89.5055 19.9621 89.4184 20.3561 89.4184 20.8182ZM102.396 26V17.2727H104.095V26H102.396ZM103.254 15.9261C102.959 15.9261 102.705 15.8277 102.493 15.6307C102.285 15.4299 102.181 15.1913 102.181 14.9148C102.181 14.6345 102.285 14.3958 102.493 14.1989C102.705 13.9981 102.959 13.8977 103.254 13.8977C103.55 13.8977 103.802 13.9981 104.01 14.1989C104.222 14.3958 104.328 14.6345 104.328 14.9148C104.328 15.1913 104.222 15.4299 104.01 15.6307C103.802 15.8277 103.55 15.9261 103.254 15.9261ZM108.52 20.8182V26H106.821V17.2727H108.451V18.6932H108.559C108.76 18.2311 109.075 17.8598 109.503 17.5795C109.934 17.2992 110.478 17.1591 111.133 17.1591C111.728 17.1591 112.249 17.2841 112.696 17.5341C113.143 17.7803 113.489 18.1477 113.736 18.6364C113.982 19.125 114.105 19.7292 114.105 20.4489V26H112.406V20.6534C112.406 20.0208 112.241 19.5265 111.912 19.1705C111.582 18.8106 111.13 18.6307 110.554 18.6307C110.16 18.6307 109.809 18.7159 109.503 18.8864C109.2 19.0568 108.959 19.3068 108.781 19.6364C108.607 19.9621 108.52 20.3561 108.52 20.8182ZM123.39 26L120.822 17.2727H122.577L124.287 23.6818H124.373L126.089 17.2727H127.844L129.549 23.6534H129.634L131.333 17.2727H133.089L130.526 26H128.793L127.02 19.6989H126.89L125.117 26H123.39ZM135.141 26V17.2727H136.84V26H135.141ZM135.999 15.9261C135.703 15.9261 135.45 15.8277 135.237 15.6307C135.029 15.4299 134.925 15.1913 134.925 14.9148C134.925 14.6345 135.029 14.3958 135.237 14.1989C135.45 13.9981 135.703 13.8977 135.999 13.8977C136.294 13.8977 136.546 13.9981 136.754 14.1989C136.967 14.3958 137.073 14.6345 137.073 14.9148C137.073 15.1913 136.967 15.4299 136.754 15.6307C136.546 15.8277 136.294 15.9261 135.999 15.9261ZM143.639 17.2727V18.6364H138.872V17.2727H143.639ZM140.15 15.1818H141.849V23.4375C141.849 23.767 141.899 24.0152 141.997 24.1818C142.095 24.3447 142.222 24.4564 142.378 24.517C142.537 24.5739 142.709 24.6023 142.895 24.6023C143.031 24.6023 143.15 24.5928 143.253 24.5739C143.355 24.5549 143.434 24.5398 143.491 24.5284L143.798 25.9318C143.7 25.9697 143.559 26.0076 143.378 26.0455C143.196 26.0871 142.969 26.1098 142.696 26.1136C142.249 26.1212 141.832 26.0417 141.446 25.875C141.059 25.7083 140.747 25.4508 140.508 25.1023C140.27 24.7538 140.15 24.3163 140.15 23.7898V15.1818ZM147.845 20.8182V26H146.146V14.3636H147.822V18.6932H147.93C148.134 18.2235 148.447 17.8504 148.867 17.5739C149.288 17.2973 149.837 17.1591 150.515 17.1591C151.114 17.1591 151.636 17.2822 152.083 17.5284C152.534 17.7746 152.883 18.142 153.129 18.6307C153.379 19.1155 153.504 19.7216 153.504 20.4489V26H151.805V20.6534C151.805 20.0133 151.64 19.517 151.311 19.1648C150.981 18.8087 150.523 18.6307 149.936 18.6307C149.534 18.6307 149.174 18.7159 148.856 18.8864C148.542 19.0568 148.294 19.3068 148.112 19.6364C147.934 19.9621 147.845 20.3561 147.845 20.8182ZM168.897 18.0398C168.787 17.6951 168.639 17.3864 168.453 17.1136C168.272 16.8371 168.054 16.6023 167.8 16.4091C167.546 16.2121 167.256 16.0625 166.931 15.9602C166.609 15.858 166.254 15.8068 165.868 15.8068C165.213 15.8068 164.622 15.9754 164.095 16.3125C163.569 16.6496 163.152 17.1439 162.845 17.7955C162.542 18.4432 162.391 19.2367 162.391 20.1761C162.391 21.1193 162.544 21.9167 162.851 22.5682C163.158 23.2197 163.578 23.714 164.112 24.0511C164.647 24.3883 165.254 24.5568 165.936 24.5568C166.569 24.5568 167.12 24.428 167.59 24.1705C168.063 23.9129 168.429 23.5492 168.686 23.0795C168.948 22.6061 169.078 22.0492 169.078 21.4091L169.533 21.4943H166.203V20.0455H170.777V21.3693C170.777 22.3466 170.569 23.1951 170.152 23.9148C169.739 24.6307 169.167 25.1837 168.436 25.5739C167.709 25.964 166.876 26.1591 165.936 26.1591C164.883 26.1591 163.959 25.9167 163.164 25.4318C162.372 24.947 161.754 24.2595 161.311 23.3693C160.868 22.4754 160.647 21.4148 160.647 20.1875C160.647 19.2595 160.775 18.4261 161.033 17.6875C161.29 16.9489 161.652 16.322 162.118 15.8068C162.588 15.2879 163.139 14.892 163.772 14.6193C164.408 14.3428 165.103 14.2045 165.857 14.2045C166.486 14.2045 167.071 14.2973 167.612 14.483C168.158 14.6686 168.643 14.9318 169.067 15.2727C169.495 15.6136 169.849 16.0189 170.129 16.4886C170.41 16.9545 170.599 17.4716 170.698 18.0398H168.897ZM176.986 26.1761C176.168 26.1761 175.453 25.9886 174.844 25.6136C174.234 25.2386 173.76 24.714 173.423 24.0398C173.086 23.3655 172.918 22.5777 172.918 21.6761C172.918 20.7708 173.086 19.9792 173.423 19.3011C173.76 18.6231 174.234 18.0966 174.844 17.7216C175.453 17.3466 176.168 17.1591 176.986 17.1591C177.804 17.1591 178.518 17.3466 179.128 17.7216C179.738 18.0966 180.211 18.6231 180.548 19.3011C180.885 19.9792 181.054 20.7708 181.054 21.6761C181.054 22.5777 180.885 23.3655 180.548 24.0398C180.211 24.714 179.738 25.2386 179.128 25.6136C178.518 25.9886 177.804 26.1761 176.986 26.1761ZM176.991 24.75C177.522 24.75 177.961 24.6098 178.31 24.3295C178.658 24.0492 178.916 23.6761 179.082 23.2102C179.253 22.7443 179.338 22.2311 179.338 21.6705C179.338 21.1136 179.253 20.6023 179.082 20.1364C178.916 19.6667 178.658 19.2898 178.31 19.0057C177.961 18.7216 177.522 18.5795 176.991 18.5795C176.457 18.5795 176.014 18.7216 175.662 19.0057C175.313 19.2898 175.054 19.6667 174.883 20.1364C174.717 20.6023 174.633 21.1136 174.633 21.6705C174.633 22.2311 174.717 22.7443 174.883 23.2102C175.054 23.6761 175.313 24.0492 175.662 24.3295C176.014 24.6098 176.457 24.75 176.991 24.75ZM187.066 26.1761C186.248 26.1761 185.534 25.9886 184.924 25.6136C184.314 25.2386 183.841 24.714 183.504 24.0398C183.167 23.3655 182.998 22.5777 182.998 21.6761C182.998 20.7708 183.167 19.9792 183.504 19.3011C183.841 18.6231 184.314 18.0966 184.924 17.7216C185.534 17.3466 186.248 17.1591 187.066 17.1591C187.884 17.1591 188.599 17.3466 189.208 17.7216C189.818 18.0966 190.292 18.6231 190.629 19.3011C190.966 19.9792 191.134 20.7708 191.134 21.6761C191.134 22.5777 190.966 23.3655 190.629 24.0398C190.292 24.714 189.818 25.2386 189.208 25.6136C188.599 25.9886 187.884 26.1761 187.066 26.1761ZM187.072 24.75C187.602 24.75 188.042 24.6098 188.39 24.3295C188.739 24.0492 188.996 23.6761 189.163 23.2102C189.333 22.7443 189.419 22.2311 189.419 21.6705C189.419 21.1136 189.333 20.6023 189.163 20.1364C188.996 19.6667 188.739 19.2898 188.39 19.0057C188.042 18.7216 187.602 18.5795 187.072 18.5795C186.538 18.5795 186.095 18.7216 185.742 19.0057C185.394 19.2898 185.134 19.6667 184.964 20.1364C184.797 20.6023 184.714 21.1136 184.714 21.6705C184.714 22.2311 184.797 22.7443 184.964 23.2102C185.134 23.6761 185.394 24.0492 185.742 24.3295C186.095 24.6098 186.538 24.75 187.072 24.75ZM197.13 29.4545C196.437 29.4545 195.84 29.3636 195.34 29.1818C194.844 29 194.439 28.7595 194.124 28.4602C193.81 28.161 193.575 27.8333 193.42 27.4773L194.88 26.875C194.982 27.0417 195.119 27.2178 195.289 27.4034C195.463 27.5928 195.698 27.7538 195.994 27.8864C196.293 28.0189 196.677 28.0852 197.147 28.0852C197.791 28.0852 198.323 27.928 198.744 27.6136C199.164 27.303 199.374 26.8068 199.374 26.125V24.4091H199.266C199.164 24.5947 199.016 24.8011 198.823 25.0284C198.634 25.2557 198.372 25.4527 198.039 25.6193C197.706 25.786 197.272 25.8693 196.738 25.8693C196.048 25.8693 195.427 25.7083 194.874 25.3864C194.325 25.0606 193.889 24.5814 193.567 23.9489C193.249 23.3125 193.09 22.5303 193.09 21.6023C193.09 20.6742 193.247 19.8788 193.562 19.2159C193.88 18.553 194.315 18.0455 194.869 17.6932C195.422 17.3371 196.048 17.1591 196.749 17.1591C197.291 17.1591 197.728 17.25 198.062 17.4318C198.395 17.6098 198.654 17.8182 198.84 18.0568C199.029 18.2955 199.175 18.5057 199.278 18.6875H199.403V17.2727H201.067V26.1932C201.067 26.9432 200.893 27.5587 200.545 28.0398C200.196 28.5208 199.725 28.8769 199.13 29.108C198.539 29.339 197.872 29.4545 197.13 29.4545ZM197.113 24.4602C197.601 24.4602 198.014 24.3466 198.351 24.1193C198.692 23.8883 198.95 23.5587 199.124 23.1307C199.302 22.6989 199.391 22.1818 199.391 21.5795C199.391 20.9924 199.304 20.4754 199.13 20.0284C198.956 19.5814 198.7 19.233 198.363 18.983C198.026 18.7292 197.609 18.6023 197.113 18.6023C196.601 18.6023 196.175 18.7348 195.834 19C195.494 19.2614 195.236 19.6174 195.062 20.0682C194.891 20.5189 194.806 21.0227 194.806 21.5795C194.806 22.1515 194.893 22.6534 195.067 23.0852C195.242 23.517 195.499 23.8542 195.84 24.0966C196.185 24.339 196.609 24.4602 197.113 24.4602ZM205.485 14.3636V26H203.786V14.3636H205.485ZM211.972 26.1761C211.112 26.1761 210.371 25.9924 209.75 25.625C209.133 25.2538 208.655 24.733 208.318 24.0625C207.985 23.3883 207.818 22.5985 207.818 21.6932C207.818 20.7992 207.985 20.0114 208.318 19.3295C208.655 18.6477 209.125 18.1155 209.727 17.733C210.333 17.3504 211.042 17.1591 211.852 17.1591C212.345 17.1591 212.822 17.2405 213.284 17.4034C213.746 17.5663 214.161 17.822 214.528 18.1705C214.896 18.5189 215.186 18.9716 215.398 19.5284C215.61 20.0814 215.716 20.7538 215.716 21.5455V22.1477H208.778V20.875H214.051C214.051 20.428 213.96 20.0322 213.778 19.6875C213.597 19.339 213.341 19.0644 213.011 18.8636C212.686 18.6629 212.303 18.5625 211.864 18.5625C211.386 18.5625 210.97 18.6799 210.614 18.9148C210.261 19.1458 209.989 19.4489 209.795 19.8239C209.606 20.1951 209.511 20.5985 209.511 21.0341V22.0284C209.511 22.6117 209.614 23.108 209.818 23.517C210.026 23.9261 210.316 24.2386 210.687 24.4545C211.059 24.6667 211.492 24.7727 211.989 24.7727C212.311 24.7727 212.604 24.7273 212.869 24.6364C213.134 24.5417 213.364 24.4015 213.557 24.2159C213.75 24.0303 213.898 23.8011 214 23.5284L215.608 23.8182C215.479 24.2917 215.248 24.7064 214.915 25.0625C214.585 25.4148 214.17 25.6894 213.67 25.8864C213.174 26.0795 212.608 26.1761 211.972 26.1761Z" fill="#223263"/>
<g clip-path="url(#clip0_497_111)">
<path d="M36.7619 20.1883C36.7619 19.3689 36.6954 18.7709 36.5515 18.1509H27.1948V21.8492H32.687C32.5763 22.7683 31.9783 24.1524 30.6496 25.0825L30.6309 25.2063L33.5893 27.4982L33.7943 27.5186C35.6767 25.7802 36.7619 23.2223 36.7619 20.1883Z" fill="#4285F4"/>
<path d="M27.1947 29.9313C29.8854 29.9313 32.1443 29.0454 33.7942 27.5173L30.6495 25.0812C29.8079 25.6681 28.6785 26.0778 27.1947 26.0778C24.5594 26.0778 22.3226 24.3394 21.5253 21.9365L21.4084 21.9464L18.3322 24.3271L18.292 24.439C19.9308 27.6944 23.297 29.9313 27.1947 29.9313Z" fill="#34A853"/>
<path d="M21.5253 21.9378C21.3149 21.3177 21.1931 20.6533 21.1931 19.9668C21.1931 19.2802 21.3149 18.6159 21.5142 17.9958L21.5086 17.8638L18.3939 15.4448L18.292 15.4933C17.6166 16.8442 17.229 18.3612 17.229 19.9668C17.229 21.5724 17.6166 23.0893 18.292 24.4403L21.5253 21.9378Z" fill="#FBBC05"/>
<path d="M27.1947 13.8534C29.066 13.8534 30.3283 14.6617 31.048 15.3372L33.8605 12.5911C32.1332 10.9855 29.8854 10 27.1947 10C23.297 10 19.9308 12.2367 18.292 15.4921L21.5142 17.9947C22.3226 15.5918 24.5593 13.8534 27.1947 13.8534Z" fill="#EB4335"/>
</g>
<defs>
<clipPath id="clip0_497_111">
<rect width="20" height="20" fill="white" transform="translate(17 10)"/>
</clipPath>
</defs>
</svg>
