<svg width="309" height="97" viewBox="0 0 309 97" fill="none" xmlns="http://www.w3.org/2000/svg">
<rect width="96.5844" height="96.5844" rx="16" fill="#40BFFF"/>
<path d="M75.312 36.304C75.312 40.208 74.416 43.792 72.624 47.056C70.832 50.256 68.08 52.848 64.368 54.832C60.656 56.816 56.048 57.808 50.544 57.808H40.368V82H23.952V14.608H50.544C55.92 14.608 60.464 15.536 64.176 17.392C67.888 19.248 70.672 21.808 72.528 25.072C74.384 28.336 75.312 32.08 75.312 36.304ZM49.296 44.752C52.432 44.752 54.768 44.016 56.304 42.544C57.84 41.072 58.608 38.992 58.608 36.304C58.608 33.616 57.84 31.536 56.304 30.064C54.768 28.592 52.432 27.856 49.296 27.856H40.368V44.752H49.296Z" fill="white"/>
<path d="M76.168 71.632C76.168 72.208 76.132 72.808 76.06 73.432H62.128C62.224 74.68 62.62 75.64 63.316 76.312C64.036 76.96 64.912 77.284 65.944 77.284C67.48 77.284 68.548 76.636 69.148 75.34H75.7C75.364 76.66 74.752 77.848 73.864 78.904C73 79.96 71.908 80.788 70.588 81.388C69.268 81.988 67.792 82.288 66.16 82.288C64.192 82.288 62.44 81.868 60.904 81.028C59.368 80.188 58.168 78.988 57.304 77.428C56.44 75.868 56.008 74.044 56.008 71.956C56.008 69.868 56.428 68.044 57.268 66.484C58.132 64.924 59.332 63.724 60.868 62.884C62.404 62.044 64.168 61.624 66.16 61.624C68.104 61.624 69.832 62.032 71.344 62.848C72.856 63.664 74.032 64.828 74.872 66.34C75.736 67.852 76.168 69.616 76.168 71.632ZM69.868 70.012C69.868 68.956 69.508 68.116 68.788 67.492C68.068 66.868 67.168 66.556 66.088 66.556C65.056 66.556 64.18 66.856 63.46 67.456C62.764 68.056 62.332 68.908 62.164 70.012H69.868Z" fill="white"/>
<path d="M119.428 56.78V62H116.296C114.064 62 112.324 61.46 111.076 60.38C109.828 59.276 109.204 57.488 109.204 55.016V47.024H106.756V41.912H109.204V37.016H115.36V41.912H119.392V47.024H115.36V55.088C115.36 55.688 115.504 56.12 115.792 56.384C116.08 56.648 116.56 56.78 117.232 56.78H119.428ZM121.633 51.92C121.633 49.856 122.017 48.044 122.785 46.484C123.577 44.924 124.645 43.724 125.989 42.884C127.333 42.044 128.833 41.624 130.489 41.624C131.905 41.624 133.141 41.912 134.197 42.488C135.277 43.064 136.105 43.82 136.681 44.756V41.912H142.837V62H136.681V59.156C136.081 60.092 135.241 60.848 134.161 61.424C133.105 62 131.869 62.288 130.453 62.288C128.821 62.288 127.333 61.868 125.989 61.028C124.645 60.164 123.577 58.952 122.785 57.392C122.017 55.808 121.633 53.984 121.633 51.92ZM136.681 51.956C136.681 50.42 136.249 49.208 135.385 48.32C134.545 47.432 133.513 46.988 132.289 46.988C131.065 46.988 130.021 47.432 129.157 48.32C128.317 49.184 127.897 50.384 127.897 51.92C127.897 53.456 128.317 54.68 129.157 55.592C130.021 56.48 131.065 56.924 132.289 56.924C133.513 56.924 134.545 56.48 135.385 55.592C136.249 54.704 136.681 53.492 136.681 51.956ZM159.531 41.696C161.883 41.696 163.755 42.464 165.147 44C166.563 45.512 167.271 47.6 167.271 50.264V62H161.151V51.092C161.151 49.748 160.803 48.704 160.107 47.96C159.411 47.216 158.475 46.844 157.299 46.844C156.123 46.844 155.187 47.216 154.491 47.96C153.795 48.704 153.447 49.748 153.447 51.092V62H147.291V41.912H153.447V44.576C154.071 43.688 154.911 42.992 155.967 42.488C157.023 41.96 158.211 41.696 159.531 41.696ZM174.644 39.824C173.564 39.824 172.676 39.512 171.98 38.888C171.308 38.24 170.972 37.448 170.972 36.512C170.972 35.552 171.308 34.76 171.98 34.136C172.676 33.488 173.564 33.164 174.644 33.164C175.7 33.164 176.564 33.488 177.236 34.136C177.932 34.76 178.28 35.552 178.28 36.512C178.28 37.448 177.932 38.24 177.236 38.888C176.564 39.512 175.7 39.824 174.644 39.824ZM177.704 41.912V62H171.548V41.912H177.704ZM196.818 62L188.322 50.84V62H182.166V36.728H188.322V47.816L196.746 36.728H203.982L194.19 49.112L204.342 62H196.818ZM216.411 62.288C214.443 62.288 212.667 61.868 211.083 61.028C209.523 60.188 208.287 58.988 207.375 57.428C206.487 55.868 206.043 54.044 206.043 51.956C206.043 49.892 206.499 48.08 207.411 46.52C208.323 44.936 209.571 43.724 211.155 42.884C212.739 42.044 214.515 41.624 216.483 41.624C218.451 41.624 220.227 42.044 221.811 42.884C223.395 43.724 224.643 44.936 225.555 46.52C226.467 48.08 226.923 49.892 226.923 51.956C226.923 54.02 226.455 55.844 225.519 57.428C224.607 58.988 223.347 60.188 221.739 61.028C220.155 61.868 218.379 62.288 216.411 62.288ZM216.411 56.96C217.587 56.96 218.583 56.528 219.399 55.664C220.239 54.8 220.659 53.564 220.659 51.956C220.659 50.348 220.251 49.112 219.435 48.248C218.643 47.384 217.659 46.952 216.483 46.952C215.283 46.952 214.287 47.384 213.495 48.248C212.703 49.088 212.307 50.324 212.307 51.956C212.307 53.564 212.691 54.8 213.459 55.664C214.251 56.528 215.235 56.96 216.411 56.96ZM228.965 51.92C228.965 49.856 229.349 48.044 230.117 46.484C230.909 44.924 231.977 43.724 233.321 42.884C234.665 42.044 236.165 41.624 237.821 41.624C239.141 41.624 240.341 41.9 241.421 42.452C242.525 43.004 243.389 43.748 244.013 44.684V35.36H250.169V62H244.013V59.12C243.437 60.08 242.609 60.848 241.529 61.424C240.473 62 239.237 62.288 237.821 62.288C236.165 62.288 234.665 61.868 233.321 61.028C231.977 60.164 230.909 58.952 230.117 57.392C229.349 55.808 228.965 53.984 228.965 51.92ZM244.013 51.956C244.013 50.42 243.581 49.208 242.717 48.32C241.877 47.432 240.845 46.988 239.621 46.988C238.397 46.988 237.353 47.432 236.489 48.32C235.649 49.184 235.229 50.384 235.229 51.92C235.229 53.456 235.649 54.68 236.489 55.592C237.353 56.48 238.397 56.924 239.621 56.924C240.845 56.924 241.877 56.48 242.717 55.592C243.581 54.704 244.013 53.492 244.013 51.956ZM273.559 51.632C273.559 52.208 273.523 52.808 273.451 53.432H259.519C259.615 54.68 260.011 55.64 260.707 56.312C261.427 56.96 262.303 57.284 263.335 57.284C264.871 57.284 265.939 56.636 266.539 55.34H273.091C272.755 56.66 272.143 57.848 271.255 58.904C270.391 59.96 269.299 60.788 267.979 61.388C266.659 61.988 265.183 62.288 263.551 62.288C261.583 62.288 259.831 61.868 258.295 61.028C256.759 60.188 255.559 58.988 254.695 57.428C253.831 55.868 253.399 54.044 253.399 51.956C253.399 49.868 253.819 48.044 254.659 46.484C255.523 44.924 256.723 43.724 258.259 42.884C259.795 42.044 261.559 41.624 263.551 41.624C265.495 41.624 267.223 42.032 268.735 42.848C270.247 43.664 271.423 44.828 272.263 46.34C273.127 47.852 273.559 49.616 273.559 51.632ZM267.259 50.012C267.259 48.956 266.899 48.116 266.179 47.492C265.459 46.868 264.559 46.556 263.479 46.556C262.447 46.556 261.571 46.856 260.851 47.456C260.155 48.056 259.723 48.908 259.555 50.012H267.259Z" fill="#22262A"/>
</svg>
